<svg width="106" height="23" viewBox="0 0 106 23" fill="none" xmlns="http://www.w3.org/2000/svg">
<path d="M104.097 21.4968C104.924 21.4432 105.551 20.7295 105.497 19.9028L104.622 6.43117C104.568 5.60449 103.855 4.97784 103.028 5.03152C102.201 5.08521 101.575 5.79888 101.628 6.62557L102.406 18.6003L90.4312 19.3779C89.6045 19.4316 88.9778 20.1453 89.0315 20.972C89.0852 21.7987 89.7989 22.4253 90.6256 22.3716L104.097 21.4968ZM1 20C1.9897 21.1272 1.98937 21.1275 1.98911 21.1277C1.98913 21.1277 1.98895 21.1278 1.98898 21.1278C1.98906 21.1277 1.98944 21.1274 1.99013 21.1268C1.99151 21.1256 1.99414 21.1233 1.998 21.1199C2.00572 21.1132 2.01838 21.1023 2.03594 21.0872C2.07107 21.0571 2.12579 21.0106 2.19982 20.9487C2.34788 20.825 2.5731 20.6399 2.87303 20.4022C3.47295 19.9268 4.37138 19.2413 5.54876 18.4156C7.90423 16.7637 11.3719 14.5536 15.7958 12.3416C24.6475 7.91581 37.2917 3.5 52.5 3.5V0.5C36.7083 0.5 23.6025 5.08419 14.4542 9.65836C9.87807 11.9464 6.28327 14.2363 3.82624 15.9594C2.59737 16.8212 1.65205 17.542 1.00978 18.0509C0.68862 18.3055 0.443134 18.5071 0.275765 18.647C0.192077 18.7169 0.127909 18.7715 0.0835664 18.8095C0.0613944 18.8285 0.0441775 18.8434 0.0319538 18.854C0.0258419 18.8593 0.0209782 18.8635 0.0173674 18.8667C0.0155619 18.8682 0.0140698 18.8695 0.0128914 18.8706C0.0123025 18.8711 0.0116535 18.8717 0.0113592 18.8719C0.0107896 18.8724 0.0102983 18.8728 1 20ZM52.5 3.5C67.7083 3.5 80.3525 7.91581 89.2042 12.3416C93.6281 14.5536 97.0958 16.7637 99.4512 18.4156C100.629 19.2413 101.527 19.9268 102.127 20.4022C102.427 20.6399 102.652 20.825 102.8 20.9487C102.874 21.0106 102.929 21.0571 102.964 21.0872C102.982 21.1023 102.994 21.1132 103.002 21.1199C103.006 21.1233 103.008 21.1256 103.01 21.1268C103.011 21.1274 103.011 21.1277 103.011 21.1278C103.011 21.1278 103.011 21.1277 103.011 21.1277C103.011 21.1275 103.01 21.1272 104 20C104.99 18.8728 104.989 18.8724 104.989 18.8719C104.988 18.8717 104.988 18.8711 104.987 18.8706C104.986 18.8695 104.984 18.8682 104.983 18.8667C104.979 18.8635 104.974 18.8593 104.968 18.854C104.956 18.8434 104.939 18.8285 104.916 18.8095C104.872 18.7715 104.808 18.7169 104.724 18.647C104.557 18.5071 104.311 18.3055 103.99 18.0509C103.348 17.542 102.403 16.8212 101.174 15.9594C98.7167 14.2363 95.1219 11.9464 90.5458 9.65836C81.3975 5.08419 68.2917 0.5 52.5 0.5V3.5Z" fill="#F62722"/>
</svg>
